<svg xmlns="http://www.w3.org/2000/svg" viewBox="0 0 48 48"><path d="M 24.587891 3.5 C 19.386262 3.5 16.731443 7.9315905 15.642578 9.5976562 C 13.538376 8.8082085 11.635156 8.1417392 10.257812 7.6796875 L 10.257812 7.6777344 C 9.7616281 7.5115506 9.2426132 7.5197643 8.7734375 7.65625 C 8.3042618 7.7927357 7.8845093 8.0589605 7.5820312 8.40625 C 6.9770755 9.100829 6.7624031 10.212228 7.2226562 11.150391 C 7.8001674 12.330868 8.523758 13.907852 9.1328125 15.351562 C 8.484167 15.216425 7.8845838 15.104962 7.375 15.03125 C 6.1612089 14.855411 5.0293396 15.513052 4.4726562 16.414062 C 3.915973 17.315075 3.8154391 18.53075 4.3808594 19.583984 C 5.7950256 22.217472 7.2363281 24.333471 7.2363281 30.267578 C 7.2363281 37.55606 12.853602 43.888672 19.951172 43.888672 C 19.805234 43.888672 20.514891 43.89517 21.310547 43.90625 C 22.106203 43.9173 23.153276 43.932826 24.201172 43.947266 C 25.249068 43.961706 26.297041 43.974185 27.09375 43.984375 C 27.492105 43.989475 27.82799 43.995447 28.070312 43.998047 C 28.191475 43.999347 28.288889 43.9994 28.361328 44 C 28.433768 44.000511 28.360128 44.006847 28.558594 43.998047 L 28.558594 43.982422 C 28.65951 43.98485 28.757895 43.998047 28.859375 43.998047 C 36.030092 43.998047 41.720703 37.65036 41.720703 30.328125 C 41.720703 24.370597 43.181507 22.2447 44.613281 19.599609 C 45.757966 17.485635 44.03893 14.679387 41.605469 15.029297 L 41.603516 15.03125 C 41.142334 15.09759 40.540379 15.182806 40.003906 15.257812 C 40.04269 15.144563 40.073806 15.03589 40.115234 14.921875 C 40.618245 13.53754 41.267747 11.99094 41.806641 10.759766 L 41.806641 10.757812 C 42.234574 9.780109 41.946491 8.6512628 41.285156 7.9902344 C 40.623396 7.3287806 39.497948 7.040428 38.519531 7.4667969 L 38.517578 7.4667969 C 37.238747 8.0254464 35.320159 8.7983268 33.505859 9.578125 C 32.551125 8.0801542 30.238194 3.5 24.587891 3.5 z M 24.587891 6.5 C 28.390139 6.5 29.53197 8.8360067 30.695312 10.763672 C 28.432363 11.722281 26.230015 12.687162 24.558594 13.353516 C 23.458944 12.822609 22.323262 12.306696 21.173828 11.810547 C 20.281063 11.425188 19.389906 11.062845 18.507812 10.708984 C 19.702127 8.8956997 21.423161 6.5 24.587891 6.5 z M 38.597656 10.689453 C 38.156631 11.727525 37.696116 12.797735 37.296875 13.896484 C 37.053173 14.567176 36.833833 15.182738 36.658203 15.775391 C 34.773076 16.081495 32.764963 16.445004 30.683594 16.980469 C 29.902897 16.365247 29.005423 15.773933 28.035156 15.199219 C 31.447766 13.795295 35.663113 11.967963 38.597656 10.689453 z M 10.445312 10.955078 C 12.962578 11.815673 16.385312 13.012042 19.986328 14.566406 C 22.546797 15.671622 25.059144 16.919004 27.001953 18.111328 C 26.792635 18.186134 26.578326 18.249471 26.371094 18.328125 C 25.43443 18.68363 24.520777 19.082838 23.642578 19.529297 C 20.475167 18.437643 16.35446 17.181239 12.744141 16.236328 C 12.14672 14.527672 11.247205 12.608818 10.445312 10.955078 z M 42.03125 18 C 42.04579 17.9979 42.071883 17.9939 41.976562 18.169922 L 41.976562 18.171875 C 40.616338 20.684784 38.720703 23.831653 38.720703 30.328125 C 38.720703 36.09589 34.236658 40.998047 28.859375 40.998047 C 23.41561 40.998047 18.998047 36.551853 18.998047 30.328125 C 18.998261 27.992913 19.848201 26.274307 21.332031 24.775391 C 22.815862 23.276474 24.979968 22.064813 27.435547 21.132812 C 32.346707 19.268765 38.318772 18.534035 42.03125 18 z M 7.0253906 18.019531 C 9.610048 18.403998 15.63454 20.090784 20.376953 21.615234 C 19.965833 21.947257 19.568634 22.292845 19.199219 22.666016 C 17.271268 24.613568 15.998333 27.214337 15.998047 30.328125 C 15.998047 34.639585 17.809968 38.41398 20.654297 40.898438 C 20.430398 40.895399 20.064615 40.888672 19.951172 40.888672 C 14.662742 40.888672 10.236328 36.015096 10.236328 30.267578 C 10.236328 23.799686 8.3672713 20.668528 7.0234375 18.166016 C 6.9846205 18.093706 7.0073646 18.055118 7.0253906 18.019531 z"></path></svg>
