<svg xmlns="http://www.w3.org/2000/svg" viewBox="0 0 48 48"><path d="M 24 5.015625 C 22.851301 5.015625 21.70304 5.3892757 20.753906 6.1367188 A 1.50015 1.50015 0 0 0 20.751953 6.1367188 L 8.859375 15.509766 C 7.0558128 16.931133 6 19.102989 6 21.400391 L 6 39.488281 C 6 41.403236 7.5850452 42.988281 9.5 42.988281 L 38.5 42.988281 C 40.414955 42.988281 42 41.403236 42 39.488281 L 42 21.400391 C 42 19.102989 40.944187 16.931133 39.140625 15.509766 A 1.50015 1.50015 0 0 0 39.140625 15.507812 L 27.246094 6.1367188 C 26.29696 5.3892758 25.148699 5.015625 24 5.015625 z M 24 8.0078125 C 24.489801 8.0078125 24.979759 8.1705836 25.390625 8.4941406 L 37.285156 17.865234 C 38.369594 18.719867 39 20.019792 39 21.400391 L 39 39.488281 C 39 39.783326 38.795045 39.988281 38.5 39.988281 L 9.5 39.988281 C 9.2049548 39.988281 9 39.783326 9 39.488281 L 9 21.400391 C 9 20.019792 9.6304058 18.719867 10.714844 17.865234 L 22.609375 8.4941406 C 23.020241 8.1705836 23.510199 8.0078125 24 8.0078125 z M 24 18.009766 C 19.902202 18.009766 15.803611 19.567483 12.685547 22.685547 A 1.5012209 1.5012209 0 1 0 14.808594 24.808594 C 19.898466 19.718721 28.101534 19.718721 33.191406 24.808594 A 1.5012209 1.5012209 0 1 0 35.314453 22.685547 C 32.196389 19.567483 28.097798 18.009766 24 18.009766 z M 24 25.009766 C 21.69348 25.009766 19.38784 25.885598 17.636719 27.636719 A 1.50015 1.50015 0 1 0 19.757812 29.757812 C 22.113571 27.402054 25.888382 27.402054 28.244141 29.757812 A 1.50015 1.50015 0 1 0 30.365234 27.636719 C 28.614114 25.885598 26.30652 25.009766 24 25.009766 z M 24 32 A 2 2 0 0 0 24 36 A 2 2 0 0 0 24 32 z"></path></svg>
