<svg xmlns="http://www.w3.org/2000/svg" viewBox="0 0 48 48"><path d="M 21.761719 3.0839844 C 20.698979 3.0839844 19.670176 3.450372 18.845703 4.1230469 C 17.3061 5.3796774 16.806302 7.4509602 17.427734 9.234375 L 14.119141 7.6171875 L 14.234375 7.6796875 C 13.515821 7.2470815 12.694472 7.0175781 11.857422 7.0175781 C 10.236229 7.0175781 8.7321414 7.8692666 7.8984375 9.2597656 A 1.50015 1.50015 0 0 0 7.8964844 9.2597656 C 6.5949037 11.431515 7.3106199 14.291258 9.4824219 15.59375 A 1.50015 1.50015 0 0 0 9.5917969 15.654297 L 14.457031 18.039062 C 13.160954 18.087643 11.914717 18.560067 10.953125 19.435547 L 6.6757812 23.332031 A 1.50015 1.50015 0 0 0 6.6269531 23.378906 C 5.7624336 24.243426 5.2734375 25.423108 5.2734375 26.644531 C 5.2734375 27.865954 5.7624336 29.043684 6.6269531 29.908203 C 6.7002751 29.981523 6.8031832 30.01029 6.8808594 30.078125 C 6.3101295 31.038037 6.1922446 32.256609 6.8417969 33.269531 L 6.8046875 33.208984 L 10.693359 39.951172 A 1.50015 1.50015 0 0 0 11.337891 40.550781 C 11.337891 40.550781 13.062667 41.38751 15.013672 42.228516 C 15.989174 42.649018 17.021943 43.072036 17.953125 43.400391 C 18.884307 43.728745 19.587858 44.001953 20.498047 44.001953 L 39.763672 44.001953 C 42.090345 44.001953 43.805987 41.656551 43.099609 39.439453 L 39.265625 27.390625 L 39.291016 27.482422 C 39.162766 26.969422 38.964506 26.480994 38.71875 26.017578 A 1.5004095 1.5004095 0 0 0 38.677734 25.90625 L 34.052734 15.154297 A 1.50015 1.50015 0 0 0 34.042969 15.132812 C 33.590112 14.123222 32.97897 13.192334 32.234375 12.373047 L 32.236328 12.373047 L 25.289062 4.7226562 L 25.339844 4.7832031 C 24.463772 3.7098868 23.1464 3.0839844 21.761719 3.0839844 z M 21.761719 6.0839844 C 22.257038 6.0839844 22.701651 6.2950037 23.015625 6.6796875 A 1.50015 1.50015 0 0 0 23.068359 6.7402344 L 30.013672 14.388672 A 1.50015 1.50015 0 0 0 30.015625 14.390625 C 30.54703 14.975338 30.981523 15.640873 31.304688 16.361328 L 31.296875 16.339844 L 32.689453 19.576172 L 28.496094 15.388672 C 27.591579 14.485294 26.553922 13.725308 25.419922 13.136719 A 1.50015 1.50015 0 0 0 25.386719 13.121094 L 24.820312 12.84375 L 20.503906 8.7011719 C 19.950026 8.0017613 20.04495 7.0163526 20.742188 6.4472656 C 21.025713 6.2159405 21.396458 6.0839844 21.761719 6.0839844 z M 11.857422 10.017578 C 12.148372 10.017578 12.436052 10.098608 12.6875 10.25 A 1.50015 1.50015 0 0 0 12.802734 10.3125 L 24.037109 15.800781 C 24.89911 16.248192 25.689468 16.825097 26.376953 17.511719 L 35.458984 26.582031 C 35.907947 27.030295 36.226746 27.592531 36.380859 28.208984 A 1.50015 1.50015 0 0 0 36.40625 28.300781 L 40.240234 40.349609 C 40.355857 40.712512 40.144994 41.001953 39.763672 41.001953 L 20.498047 41.001953 C 20.556737 41.001953 19.772755 40.860708 18.949219 40.570312 C 18.125682 40.279918 17.139544 39.877154 16.201172 39.472656 C 14.538968 38.756142 13.375278 38.192312 13.052734 38.037109 L 9.4042969 31.708984 A 1.50015 1.50015 0 0 0 9.3671875 31.648438 C 9.3273825 31.586368 9.3246695 31.58742 9.3984375 31.5625 L 10.136719 31.314453 A 1.50015 1.50015 0 0 0 10.136719 31.3125 C 11.525812 30.844005 13.033175 31.37499 13.824219 32.609375 A 1.50015 1.50015 0 0 0 13.943359 32.769531 L 15.628906 34.761719 C 16.292933 35.546319 17.272053 36.001953 18.300781 36.001953 L 19.480469 36.001953 C 20.668598 36.001953 21.781336 35.393905 22.423828 34.392578 L 24.037109 31.884766 C 24.801407 30.696441 24.773579 29.153674 23.966797 27.994141 L 22.234375 25.501953 C 21.581021 24.562102 20.504878 24.001953 19.361328 24.001953 L 16.6875 24.001953 C 15.842181 24.001953 15.02463 24.307485 14.388672 24.861328 L 11.109375 27.716797 A 1.50015 1.50015 0 0 0 11.035156 27.787109 C 10.721676 28.10059 10.333202 28.261719 9.890625 28.261719 C 9.4480481 28.261719 9.0615273 28.10059 8.7480469 27.787109 C 8.4345664 27.473629 8.2734375 27.087108 8.2734375 26.644531 C 8.2734375 26.20351 8.4347898 25.816801 8.7460938 25.503906 L 12.972656 21.652344 C 13.434251 21.232086 14.032369 21.001953 14.65625 21.001953 L 20.724609 21.001953 A 1.50015 1.50015 0 0 0 20.859375 21.007812 C 21.51724 21.012313 22.144502 21.266929 22.609375 21.732422 A 1.50015 1.50015 0 0 0 22.611328 21.734375 L 29.439453 28.560547 A 1.50015 1.50015 0 1 0 31.560547 26.439453 L 24.732422 19.613281 C 23.846864 18.726542 22.670388 18.257462 21.4375 18.119141 L 11.017578 13.011719 C 10.250632 12.543458 10.006631 11.577063 10.470703 10.802734 C 10.756999 10.325233 11.298615 10.017578 11.857422 10.017578 z M 16.6875 27.001953 L 19.361328 27.001953 C 19.527779 27.001953 19.676838 27.078693 19.771484 27.214844 L 21.503906 29.707031 C 21.621122 29.875498 21.625341 30.088044 21.513672 30.261719 L 19.900391 32.771484 A 1.50015 1.50015 0 0 0 19.898438 32.773438 C 19.806687 32.916682 19.653392 33.001953 19.480469 33.001953 L 18.300781 33.001953 C 18.15151 33.001953 18.015895 32.937623 17.919922 32.824219 L 16.232422 30.832031 C 15.688497 30.055916 14.962007 29.482027 14.167969 29.03125 L 16.359375 27.125 C 16.451415 27.04484 16.566819 27.001953 16.6875 27.001953 z"></path></svg>
